Coordinates
version=1
nRows=16
nColumns=36
inDegrees=yes

Units are S.I. units (second, meters, Newtons, ...)
If the header above contains a line with 'inDegrees', this indicates whether rotational values are in degrees (yes) or radians (no).

endheader
time	pelvis_tilt	pelvis_list	pelvis_rotation	pelvis_tx	pelvis_ty	pelvis_tz	hip_flexion_r	hip_adduction_r	hip_rotation_r	knee_angle_r	knee_angle_r_beta	ankle_angle_r	subtalar_angle_r	mtp_angle_r	hip_flexion_l	hip_adduction_l	hip_rotation_l	knee_angle_l	knee_angle_l_beta	ankle_angle_l	subtalar_angle_l	mtp_angle_l	lumbar_extension	lumbar_bending	lumbar_rotation	arm_flex_r	arm_add_r	arm_rot_r	elbow_flex_r	pro_sup_r	arm_flex_l	arm_add_l	arm_rot_l	elbow_flex_l	pro_sup_l
      5.98333330	      5.80620141	      7.73842730	     -4.94728433	      0.83995729	      0.83229768	     -0.48165988	     47.27898599	    -14.31492500	      5.00888799	     22.80553782	      0.39803172	    -13.25233184	      8.30553588	     -7.49999987	     26.65242753	     15.91762087	      0.96619268	     51.36903954	      0.89655887	     22.94765443	     -1.67797477	     -7.49999987	    -36.13527392	     -8.67004975	     -3.03100853	     79.17450765	     -7.27159074	     61.82933818	    115.90580280	     82.57350045	     97.04704959	      2.16814137	     62.14125209	    116.90107993	     88.21467325
      6.00000000	      5.63246193	      8.15609822	     -5.03748086	      0.83938481	      0.83478089	     -0.48074507	     47.81838118	    -14.74202575	      5.17246805	     22.72365620	      0.39660262	    -13.67231695	      8.50341770	     -7.49999987	     27.44244822	     16.16689120	      0.60512417	     52.01919001	      0.90790614	     22.75052514	     -1.78555000	     -7.49999987	    -36.83314420	     -9.10790060	     -3.62350232	     79.86610683	     -5.73278199	     63.47057151	    115.20496138	     83.25195462	     97.92359060	      1.61646348	     63.15281350	    118.23984405	     88.73448999
      6.01666670	      5.44595621	      8.41932777	     -5.12612484	      0.83981176	      0.82756018	     -0.48072629	     48.33651433	    -15.07412920	      5.15670526	     22.53656469	      0.39333726	    -14.13553840	      8.79388947	     -7.49999987	     28.19252793	     16.26538474	      0.23212890	     52.75122487	      0.92068256	     22.77400895	     -1.82434469	     -7.49999987	    -37.37163315	     -9.33470942	     -3.94336206	     80.63492077	     -4.68392260	     64.47922131	    115.69143550	     82.98682213	     98.50054526	      0.93374996	     64.14813476	    119.38434965	     88.01078732
      6.03333330	      5.22023201	      8.63997973	     -5.09680190	      0.83892599	      0.82696316	     -0.48054705	     48.71203852	    -15.43557329	      5.02964123	     22.21350586	      0.38769882	    -14.56380459	      9.13964344	     -7.49999987	     28.84838036	     16.37541618	      0.03818535	     53.32883363	      0.93076373	     22.83842789	     -1.83500185	     -7.49999987	    -37.67559064	     -9.62074442	     -4.34670160	     79.82228968	     -4.52729604	     65.42306759	    115.61207712	     82.44786366	     98.00474694	      0.78365482	     64.91802035	    119.36606042	     87.42854147
      6.05000000	      4.96763234	      8.94105967	     -5.25465239	      0.83931306	      0.82315726	     -0.48091389	     49.25257310	    -15.68645970	      5.24381265	     22.07588022	      0.38529680	    -14.56673449	      9.53293834	     -7.49999987	     29.47664678	     16.53649230	     -0.27018133	     53.79921897	      0.93897351	     22.80694130	     -1.60229782	     -7.49999987	    -38.15910679	     -9.90891083	     -5.09072224	     80.21031410	     -4.49402199	     66.70676118	    115.59337743	     82.03107954	     99.61669089	      0.21539509	     66.25365728	    120.53791066	     86.95705076
      6.06666670	      4.60677386	      9.12419282	     -5.16943704	      0.83146774	      0.81828410	     -0.47723059	     49.88038086	    -15.91636220	      5.27866326	     22.02740819	      0.38445080	    -14.91305994	      9.69952884	     -7.49999987	     30.45664161	     16.53839949	     -0.56972762	     54.58734067	      0.95272882	     22.72908513	     -1.63655882	     -7.49999987	    -38.69991070	    -10.08969180	     -5.03959506	     81.47569423	     -4.54961283	     65.99825419	    115.32146910	     82.09490921	    100.91397195	      0.17051375	     65.98441231	    120.84250039	     87.06691501
      6.08333330	      4.40074574	      9.41546627	     -5.19649969	      0.83114148	      0.81423109	     -0.47682253	     50.62913900	    -16.16677802	      5.45289913	     22.30687130	      0.38932835	    -15.18574081	      9.65622814	     -7.49999987	     31.49736678	     16.62357061	     -1.01221429	     55.53956552	      0.96934828	     22.82125008	     -1.59362367	     -7.49999987	    -39.41451506	    -10.41828271	     -5.53370703	     82.27665794	     -3.68488990	     65.83965951	    117.03930549	     82.00629078	    102.60296109	     -0.38882359	     66.05236908	    122.39798014	     87.03535319
      6.10000000	      4.11091217	      9.62714058	     -5.25824715	      0.83007248	      0.80746931	     -0.47673930	     51.56852081	    -16.26841421	      5.78092690	     22.71751310	      0.39649540	    -15.38299043	      9.37983396	     -7.49999987	     32.69020238	     16.62663012	     -1.41692253	     56.68806407	      0.98939336	     22.97247644	     -1.53991003	     -7.49999987	    -39.78780716	    -10.74182976	     -5.55953038	     83.36919862	     -3.32287907	     66.00538058	    117.10669177	     82.64761176	    103.42350305	     -0.36666177	     65.21368143	    122.29454130	     87.52308613
      6.11666670	      3.95013537	      9.92630539	     -5.21019397	      0.82567301	      0.80703986	     -0.48116727	     52.35559325	    -16.69070871	      5.62344501	     23.06459498	      0.40255312	    -15.63293857	      9.39386233	     -7.49999987	     33.72933727	     16.88620168	     -1.73166671	     57.68281985	      1.00675513	     22.90580224	     -1.78435874	     -7.49999987	    -40.61841730	    -10.62002160	     -5.23235496	     84.92692790	     -4.32523464	     67.61640755	    118.93995686	     83.20725412	    103.77630244	      0.43206403	     64.52600479	    120.29976366	     87.88236210
      6.13333330	      3.85917746	     10.22879123	     -5.16614253	      0.82446936	      0.80360570	     -0.48038409	     53.01423339	    -17.08974330	      5.58188572	     23.31770093	      0.40697066	    -15.89707168	      9.37782535	     -7.49999987	     34.59186559	     17.18741858	     -1.97370530	     58.52817914	      1.02150943	     22.84860430	     -1.94532985	     -7.49999987	    -41.21756689	    -10.65472017	     -5.76042825	     86.05028778	     -3.95141949	     68.44227973	    118.81866636	     82.11671925	    103.82594774	     -3.36675307	     60.27466977	    113.39475436	     86.47092879
      6.15000000	      3.84687885	     10.36803115	     -5.26451636	      0.82429345	      0.80029721	     -0.47996599	     53.44460381	    -17.26686971	      5.52602311	     23.46622660	      0.40956292	    -16.17945715	      9.48145517	     -7.49999987	     35.21010022	     17.29309069	     -2.22151466	     59.28721100	      1.03475704	     22.75604151	     -2.17143027	     -7.49999987	    -41.24620670	    -10.54621869	     -5.25685145	     86.63525641	     -3.07952458	     69.41774371	    119.65643362	     89.54140147	    103.80275928	     -1.68391234	     61.29255680	    117.83864642	     90.59685490
      6.16666670	      3.70942298	     10.66761821	     -5.26083391	      0.82332032	      0.79717405	     -0.48036339	     54.02833065	    -17.58992998	      5.60042286	     23.57630031	      0.41148407	    -16.51672821	      9.51233952	     -7.49999987	     35.93537506	     17.56168128	     -2.54381917	     59.93322943	      1.04603218	     22.56930612	     -2.32585207	     -7.49999987	    -41.10056948	    -10.85991355	     -5.01340012	     86.02479984	     -3.50724042	     68.85588720	    120.84866212	     89.20267980	    103.82089519	      0.63684382	     63.80668296	    118.70530118	     90.55519520
      6.18333330	      3.61252067	     10.94395956	     -5.23243250	      0.82358786	      0.79720823	     -0.48041635	     54.41195134	    -17.97049455	      5.50337920	     23.52560084	      0.41059919	    -16.83505056	      9.70818330	     -7.49999987	     36.49914295	     17.86627450	     -2.72701315	     60.47462930	      1.05548140	     22.36007521	     -2.39049692	     -7.49999987	    -41.38024844	    -10.73948126	     -5.14810413	     86.13552914	     -4.14565711	     70.04673253	    120.58313689	     87.54289191	    101.55438366	     -4.33244880	     60.64151568	    110.50551689	     89.05446036
      6.20000000	      3.49874680	     11.12694366	     -5.32607062	      0.82270135	      0.79060451	     -0.48012432	     54.86404658	    -18.14701333	      5.51421165	     23.43604018	      0.40903606	    -17.25764754	      9.93574996	     -7.49999987	     37.21741624	     17.97161384	     -3.08503094	     61.23219627	      1.06870343	     22.12528423	     -2.45670630	     -7.49999987	    -41.27721080	    -10.91672628	     -4.31740959	     86.86867482	     -5.18685467	     69.64402006	    121.77710311	     86.70555119	    100.42346242	     -4.91559036	     54.37077727	    103.26923158	     88.80189768
      6.21666670	      3.19535225	     11.32273946	     -5.32571229	      0.81594299	      0.78343584	     -0.47818422	     55.70061525	    -18.20062044	      5.80519030	     23.69181229	      0.41350013	    -17.69246759	      9.95540013	     -7.49999987	     38.53662733	     17.94650988	     -3.58601342	     62.42974381	      1.08960458	     21.81754103	     -2.76469706	     -7.49999987	    -41.43712416	    -10.97795285	     -4.59938031	     87.50294369	     -4.56052388	     68.75387882	    121.55701311	     87.23935305	    102.79825163	     -3.20026747	     59.04327568	    109.89652350	     89.55048529
      6.23333330	      3.01067514	     11.45100521	     -5.39242004	      0.82201515	      0.78102779	     -0.48181482	     56.32729931	    -18.24727135	      5.89107108	     23.89659864	      0.41707433	    -17.89856277	     10.12588812	     -7.49999987	     39.56807381	     18.01671793	     -3.83867771	     63.43067253	      1.10707408	     21.85288327	     -2.94263854	     -7.49999987	    -41.71986594	    -10.77054198	     -5.31268994	     87.02240844	     -4.14513208	     65.76327695	    120.81023892	     87.67536320	    104.07999214	     -1.42548178	     62.36861447	    114.66064173	     90.41674670
